<svg version="1.1" id="Layer_1" xmlns="http://www.w3.org/2000/svg" xmlns:xlink="http://www.w3.org/1999/xlink" x="0px" y="0px"
	 width="100%" viewBox="0 0 1200 1200" enable-background="new 0 0 1200 1200" xml:space="preserve">
<path fill="#000000" opacity="1.000000" stroke="none" 
	d="
M1062.000000,1201.000000 
	C708.000000,1201.000000 354.500000,1201.000000 1.000000,1201.000000 
	C1.000000,801.000000 1.000000,401.000000 1.000000,1.000000 
	C401.000000,1.000000 801.000000,1.000000 1201.000000,1.000000 
	C1201.000000,401.000000 1201.000000,801.000000 1201.000000,1201.000000 
	C1154.833374,1201.000000 1108.666626,1201.000000 1062.000000,1201.000000 
M268.804260,620.000427 
	C268.453156,620.670166 267.621368,621.620117 267.823700,621.967041 
	C270.457123,626.482849 272.414276,631.820007 276.134094,635.195740 
	C287.463013,645.476807 312.496399,645.739136 324.737122,636.467773 
	C336.818634,627.316956 336.245453,609.510376 323.328644,601.556885 
	C319.295837,599.073792 314.596680,597.589783 310.079498,595.997559 
	C304.468567,594.019836 298.637024,592.649963 293.078796,590.546936 
	C289.329346,589.128235 287.486389,585.978088 288.016998,581.783508 
	C288.537109,577.671997 291.457794,575.927002 295.005615,574.988770 
	C304.593536,572.453186 310.015808,575.182678 314.862305,584.996399 
	C320.144165,584.424438 325.490021,583.845520 331.026184,583.246033 
	C328.742004,572.143494 322.528870,565.570557 312.108459,563.176758 
	C303.686401,561.242004 295.226044,561.364624 286.993683,564.088562 
	C278.341797,566.951416 272.220337,572.436218 271.146393,581.976562 
	C270.106018,591.218567 274.615875,598.635681 283.816010,603.047668 
	C287.232941,604.686340 290.919739,605.790771 294.536163,606.978516 
	C300.027283,608.781921 305.704681,610.101990 311.035980,612.280640 
	C315.062439,613.926086 316.938751,617.443787 316.167633,622.049133 
	C315.463867,626.252441 312.666901,628.143066 308.870483,629.162109 
	C297.301422,632.267639 289.241577,628.804382 283.315033,617.994446 
	C278.785675,618.649170 274.193115,619.312988 268.804260,620.000427 
M399.716919,585.829102 
	C390.576355,576.027466 379.177490,576.867249 367.776031,579.659790 
	C359.642578,581.651855 354.605652,587.234253 353.242432,596.115356 
	C359.024689,596.447815 364.451263,596.759827 369.772217,597.065735 
	C372.344208,589.627014 375.399872,587.593811 381.455658,589.012939 
	C386.175110,590.118958 388.244385,595.091309 387.527161,604.090210 
	C383.923767,604.090210 380.245178,603.766418 376.647247,604.166992 
	C371.400604,604.751038 366.018280,605.260986 361.044373,606.879822 
	C353.747223,609.254700 349.919495,616.205139 350.134583,624.695618 
	C350.342255,632.893188 354.340485,639.155029 360.977356,641.677307 
	C370.534973,645.309570 380.983002,642.216553 387.168457,633.941833 
	C387.914215,632.944153 388.741180,632.007202 389.695923,630.839905 
	C392.299622,642.176392 399.766357,645.287842 413.004089,640.739746 
	C413.004089,638.676270 413.019775,636.523071 412.994354,634.370300 
	C412.986877,633.737610 412.862915,633.106323 412.796692,632.513489 
	C405.284790,632.058838 404.235657,631.001587 404.146759,623.511169 
	C404.047943,615.186584 404.473633,606.830139 403.857819,598.548035 
	C403.552521,594.442017 401.424438,590.471497 399.716919,585.829102 
M1081.300171,569.309570 
	C1079.382935,564.126160 1075.590576,560.899780 1070.532349,558.996704 
	C1063.265503,556.262695 1055.840210,556.415100 1048.442017,558.133606 
	C1039.620239,560.182922 1033.928589,565.468079 1032.144409,575.142578 
	C1037.953491,575.461426 1043.491211,575.765442 1048.890503,576.061768 
	C1051.214844,568.697205 1054.106445,566.740601 1060.214478,567.985474 
	C1065.238770,569.009460 1067.595581,574.697754 1066.359253,582.662292 
	C1059.704102,583.073486 1053.026367,583.118774 1046.453369,583.971558 
	C1034.232544,585.557068 1027.563721,594.566895 1029.329712,606.424805 
	C1030.984131,617.534729 1039.882202,623.480164 1052.048950,621.848145 
	C1059.639648,620.829895 1064.418091,616.054077 1068.432495,609.788635 
	C1071.728638,621.315063 1079.843018,624.578430 1091.712158,619.652527 
	C1091.712158,616.839844 1091.712158,614.076721 1091.712158,611.332520 
	C1084.529053,611.194397 1083.373657,610.124023 1083.153442,603.279907 
	C1083.035767,599.620239 1083.282959,595.946106 1083.099731,592.291809 
	C1082.726440,584.850464 1082.172974,577.418213 1081.300171,569.309570 
M976.925720,641.460083 
	C979.647644,637.547607 983.171143,633.967957 984.957031,629.666809 
	C994.175049,607.466248 1002.952942,585.082886 1011.864807,562.755371 
	C1012.436157,561.323792 1012.841919,559.826172 1013.379089,558.194092 
	C1007.381104,558.194092 1001.920349,558.194092 996.214417,558.194092 
	C991.024170,574.176453 985.869141,590.050415 980.689453,606.000183 
	C974.960693,589.771606 969.346191,573.866577 963.785461,558.114075 
	C957.731384,558.114075 952.248352,558.114075 946.664246,558.114075 
	C946.764221,558.717896 946.753174,559.224670 946.932434,559.651550 
	C954.957642,578.757751 963.028442,597.844849 970.985657,616.979248 
	C971.636169,618.543579 972.187744,620.662720 971.662170,622.118713 
	C968.343140,631.314087 964.863647,634.898376 955.864319,633.888855 
	C954.767029,633.765747 953.644043,633.872070 952.580139,633.872070 
	C952.580139,637.879150 952.580139,641.444153 952.580139,644.920837 
	C962.611816,647.205200 969.246338,646.341125 976.925720,641.460083 
M801.328247,618.270752 
	C806.717834,621.986450 812.584167,622.803406 818.895569,621.297424 
	C825.483826,619.725281 829.146851,614.718201 832.778931,609.025940 
	C833.230530,613.395325 833.614563,617.110596 833.987793,620.721436 
	C839.312012,620.721436 844.231018,620.721436 848.942749,620.721436 
	C848.942749,599.724915 848.942749,579.010620 848.942749,558.299622 
	C843.297180,558.299622 838.087708,558.299622 832.607666,558.299622 
	C832.607666,569.234009 832.644897,579.868835 832.592773,590.503235 
	C832.564697,596.231506 831.784180,601.791016 827.736511,606.285400 
	C822.717163,611.858704 814.673645,610.579956 812.151611,603.522278 
	C810.952576,600.166992 810.532166,596.394409 810.468018,592.798218 
	C810.263855,581.341553 810.392334,569.878906 810.392334,558.219910 
	C804.798035,558.219910 799.572388,558.219910 794.107361,558.219910 
	C794.107361,573.351257 793.563477,588.293030 794.411072,603.155518 
	C794.696350,608.157043 798.517639,612.956848 801.328247,618.270752 
M720.393311,564.956787 
	C712.880798,575.551208 716.355591,587.683289 728.559448,591.919739 
	C735.427307,594.303894 742.664612,595.614441 749.714905,597.486145 
	C753.237854,598.421387 756.605408,599.891907 756.496033,604.244690 
	C756.378540,608.922119 752.661438,610.480286 748.929321,610.630920 
	C741.566101,610.928162 733.248352,613.447449 728.831360,604.148621 
	C728.564453,603.586731 727.182617,603.192017 726.398682,603.299011 
	C722.369324,603.848877 718.365906,604.588379 712.466492,605.578247 
	C716.533020,610.328308 718.964539,615.398987 722.942322,617.407654 
	C736.270020,624.137817 750.156555,624.209534 763.537842,617.063171 
	C769.706482,613.768799 772.080261,607.909363 771.675842,601.112671 
	C771.277832,594.423462 767.937744,589.444153 761.622437,586.934998 
	C757.644165,585.354431 753.489319,584.197449 749.371948,582.993408 
	C744.618835,581.603699 739.674377,580.727905 735.121338,578.872498 
	C733.576538,578.242981 732.114868,575.275208 732.195801,573.445984 
	C732.264282,571.899048 734.333862,569.750854 736.004089,569.080566 
	C744.556519,565.648438 751.662781,568.149658 756.367249,575.964783 
	C760.805908,575.452026 765.332275,574.929138 769.910645,574.400208 
	C765.778381,556.154602 736.085388,550.444885 720.393311,564.956787 
M469.456543,609.500977 
	C469.456543,599.423950 469.456543,589.346863 469.456543,579.249268 
	C458.092529,579.249268 447.183960,579.249268 436.235382,579.249268 
	C436.235382,582.911194 436.235382,586.316406 436.235382,590.177368 
	C441.861755,590.177368 447.268066,590.177368 452.635254,590.177368 
	C452.635254,604.002014 452.635254,617.360229 452.635254,631.144775 
	C444.887238,631.144775 437.497040,631.144775 430.296082,631.144775 
	C430.296082,634.995483 430.296082,638.408752 430.296082,641.774536 
	C450.327393,641.774536 470.059235,641.774536 489.932373,641.774536 
	C489.932373,638.135620 489.932373,634.726196 489.932373,630.865112 
	C483.181427,630.865112 476.609467,630.865112 469.675140,630.865112 
	C469.675140,623.778625 469.675140,617.139832 469.456543,609.500977 
M559.000000,580.500000 
	C559.000000,609.244141 559.000000,637.988281 559.000000,666.697693 
	C563.304993,666.697693 567.037109,666.697693 570.717163,666.697693 
	C570.717163,622.686584 570.717163,578.978333 570.717163,535.302124 
	C566.695312,535.302124 562.963135,535.302124 559.000000,535.302124 
	C559.000000,550.235352 559.000000,564.867676 559.000000,580.500000 
M631.000000,610.500000 
	C631.000000,629.251099 631.000000,648.002258 631.000000,666.688477 
	C635.324402,666.688477 639.056946,666.688477 642.708191,666.688477 
	C642.708191,622.668030 642.708191,578.959717 642.708191,535.311401 
	C638.677368,535.311401 634.945251,535.311401 631.000000,535.311401 
	C631.000000,560.248108 631.000000,584.874023 631.000000,610.500000 
M879.816101,613.366943 
	C879.816101,615.824036 879.816101,618.281067 879.816101,620.718994 
	C885.297974,620.718994 890.539490,620.718994 896.002502,620.718994 
	C896.002502,619.128540 895.971436,617.819214 896.007446,616.511719 
	C896.268127,607.052429 895.837280,597.506409 896.992493,588.156677 
	C898.410889,576.675598 906.130859,570.772644 917.572205,570.931091 
	C921.011230,570.978760 924.445862,571.343567 928.136780,571.579285 
	C928.136780,567.068298 928.136780,562.683594 928.136780,557.972961 
	C921.561584,557.972961 915.097290,557.439026 908.762207,558.115540 
	C901.707825,558.868958 898.532043,564.895203 895.342834,570.767883 
	C894.359924,566.224609 893.493713,562.220642 892.639587,558.272705 
	C887.154846,558.272705 882.083557,558.272705 876.677490,558.272705 
	C881.277710,576.337646 879.272156,594.431458 879.816101,613.366943 
M547.000000,617.491760 
	C547.000000,602.081909 547.000000,586.671997 547.000000,571.299805 
	C542.694397,571.299805 538.964050,571.299805 535.284302,571.299805 
	C535.284302,591.312195 535.284302,611.023315 535.284302,630.699951 
	C539.305237,630.699951 543.035217,630.699951 547.000000,630.699951 
	C547.000000,626.430908 547.000000,622.459717 547.000000,617.491760 
M619.000000,598.500000 
	C619.000000,589.413269 619.000000,580.326599 619.000000,571.308228 
	C614.677429,571.308228 610.947144,571.308228 607.291931,571.308228 
	C607.291931,591.328796 607.291931,611.039734 607.291931,630.692139 
	C611.321960,630.692139 615.052368,630.692139 619.000000,630.692139 
	C619.000000,620.090393 619.000000,609.795166 619.000000,598.500000 
M667.000000,589.500488 
	C667.000000,583.409302 667.000000,577.318054 667.000000,571.313660 
	C662.668457,571.313660 658.938477,571.313660 655.297241,571.313660 
	C655.297241,591.339783 655.297241,611.050781 655.297241,630.686646 
	C659.332825,630.686646 663.063171,630.686646 667.000000,630.686646 
	C667.000000,617.083130 667.000000,603.791748 667.000000,589.500488 
M523.000000,595.578125 
	C523.000000,593.478638 523.000000,591.379150 523.000000,589.282959 
	C518.720154,589.282959 514.994568,589.282959 511.276276,589.282959 
	C511.276276,597.286133 511.276276,605.003662 511.276276,612.714844 
	C515.284058,612.714844 519.008545,612.714844 523.000000,612.714844 
	C523.000000,607.143372 523.000000,601.852966 523.000000,595.578125 
M593.295166,589.008850 
	C589.892761,589.008850 586.490356,589.008850 583.366821,589.008850 
	C583.366821,597.473206 583.366821,605.196838 583.366821,612.798645 
	C587.347961,612.798645 590.959473,612.798645 595.327515,612.798645 
	C594.961853,604.750000 594.606079,596.918640 593.295166,589.008850 
M679.000916,610.302368 
	C679.783569,611.200378 680.495605,612.783691 681.361633,612.872925 
	C684.435120,613.189514 687.561157,612.996399 690.757996,612.996399 
	C690.757996,604.789246 690.757996,597.071594 690.757996,589.250732 
	C686.787231,589.250732 683.062500,589.250732 679.000061,589.250732 
	C679.000061,596.108337 679.000061,602.720459 679.000916,610.302368 
M457.604980,567.006897 
	C461.506226,567.006897 465.407471,567.006897 469.355591,567.006897 
	C469.355591,562.725403 469.355591,559.028564 469.355591,555.193970 
	C463.823212,555.193970 458.602081,555.193970 452.993164,555.193970 
	C452.993164,558.150146 453.213226,560.942993 452.934692,563.685242 
	C452.620667,566.776917 454.077759,567.381836 457.604980,567.006897 
z"/>
<path fill="#FBFBFB" opacity="1.000000" stroke="none" 
	d="
M269.202423,619.988647 
	C274.193115,619.312988 278.785675,618.649170 283.315033,617.994446 
	C289.241577,628.804382 297.301422,632.267639 308.870483,629.162109 
	C312.666901,628.143066 315.463867,626.252441 316.167633,622.049133 
	C316.938751,617.443787 315.062439,613.926086 311.035980,612.280640 
	C305.704681,610.101990 300.027283,608.781921 294.536163,606.978516 
	C290.919739,605.790771 287.232941,604.686340 283.816010,603.047668 
	C274.615875,598.635681 270.106018,591.218567 271.146393,581.976562 
	C272.220337,572.436218 278.341797,566.951416 286.993683,564.088562 
	C295.226044,561.364624 303.686401,561.242004 312.108459,563.176758 
	C322.528870,565.570557 328.742004,572.143494 331.026184,583.246033 
	C325.490021,583.845520 320.144165,584.424438 314.862305,584.996399 
	C310.015808,575.182678 304.593536,572.453186 295.005615,574.988770 
	C291.457794,575.927002 288.537109,577.671997 288.016998,581.783508 
	C287.486389,585.978088 289.329346,589.128235 293.078796,590.546936 
	C298.637024,592.649963 304.468567,594.019836 310.079498,595.997559 
	C314.596680,597.589783 319.295837,599.073792 323.328644,601.556885 
	C336.245453,609.510376 336.818634,627.316956 324.737122,636.467773 
	C312.496399,645.739136 287.463013,645.476807 276.134094,635.195740 
	C272.414276,631.820007 270.457123,626.482849 267.823700,621.967041 
	C267.621368,621.620117 268.453156,620.670166 269.202423,619.988647 
z"/>
<path fill="#FBFBFB" opacity="1.000000" stroke="none" 
	d="
M399.918945,586.134399 
	C401.424438,590.471497 403.552521,594.442017 403.857819,598.548035 
	C404.473633,606.830139 404.047943,615.186584 404.146759,623.511169 
	C404.235657,631.001587 405.284790,632.058838 412.796692,632.513489 
	C412.862915,633.106323 412.986877,633.737610 412.994354,634.370300 
	C413.019775,636.523071 413.004089,638.676270 413.004089,640.739746 
	C399.766357,645.287842 392.299622,642.176392 389.695923,630.839905 
	C388.741180,632.007202 387.914215,632.944153 387.168457,633.941833 
	C380.983002,642.216553 370.534973,645.309570 360.977356,641.677307 
	C354.340485,639.155029 350.342255,632.893188 350.134583,624.695618 
	C349.919495,616.205139 353.747223,609.254700 361.044373,606.879822 
	C366.018280,605.260986 371.400604,604.751038 376.647247,604.166992 
	C380.245178,603.766418 383.923767,604.090210 387.527161,604.090210 
	C388.244385,595.091309 386.175110,590.118958 381.455658,589.012939 
	C375.399872,587.593811 372.344208,589.627014 369.772217,597.065735 
	C364.451263,596.759827 359.024689,596.447815 353.242432,596.115356 
	C354.605652,587.234253 359.642578,581.651855 367.776031,579.659790 
	C379.177490,576.867249 390.576355,576.027466 399.918945,586.134399 
M384.293152,613.006958 
	C380.519043,613.326965 376.675720,613.306885 372.989105,614.056946 
	C368.804688,614.908325 366.807159,619.028381 367.461700,624.335022 
	C367.949951,628.293701 369.459808,631.191223 374.116638,631.485535 
	C382.088989,631.989441 390.519409,621.291321 387.713562,613.899048 
	C387.509918,613.362549 386.074493,613.293701 384.293152,613.006958 
z"/>
<path fill="#FBFBFB" opacity="1.000000" stroke="none" 
	d="
M1081.496948,569.645874 
	C1082.172974,577.418213 1082.726440,584.850464 1083.099731,592.291809 
	C1083.282959,595.946106 1083.035767,599.620239 1083.153442,603.279907 
	C1083.373657,610.124023 1084.529053,611.194397 1091.712158,611.332520 
	C1091.712158,614.076721 1091.712158,616.839844 1091.712158,619.652527 
	C1079.843018,624.578430 1071.728638,621.315063 1068.432495,609.788635 
	C1064.418091,616.054077 1059.639648,620.829895 1052.048950,621.848145 
	C1039.882202,623.480164 1030.984131,617.534729 1029.329712,606.424805 
	C1027.563721,594.566895 1034.232544,585.557068 1046.453369,583.971558 
	C1053.026367,583.118774 1059.704102,583.073486 1066.359253,582.662292 
	C1067.595581,574.697754 1065.238770,569.009460 1060.214478,567.985474 
	C1054.106445,566.740601 1051.214844,568.697205 1048.890503,576.061768 
	C1043.491211,575.765442 1037.953491,575.461426 1032.144409,575.142578 
	C1033.928589,565.468079 1039.620239,560.182922 1048.442017,558.133606 
	C1055.840210,556.415100 1063.265503,556.262695 1070.532349,558.996704 
	C1075.590576,560.899780 1079.382935,564.126160 1081.496948,569.645874 
M1066.012817,600.199646 
	C1066.331421,597.630554 1066.650146,595.061462 1067.076538,591.623657 
	C1061.586182,592.115784 1056.622681,592.165039 1051.833862,593.104492 
	C1047.302856,593.993164 1045.416748,599.124695 1046.820435,604.972229 
	C1047.935913,609.618835 1050.599243,611.137085 1055.754272,610.234924 
	C1061.125977,609.294800 1063.914673,605.628540 1066.012817,600.199646 
z"/>
<path fill="#FBFBFB" opacity="1.000000" stroke="none" 
	d="
M976.652710,641.697632 
	C969.246338,646.341125 962.611816,647.205200 952.580139,644.920837 
	C952.580139,641.444153 952.580139,637.879150 952.580139,633.872070 
	C953.644043,633.872070 954.767029,633.765747 955.864319,633.888855 
	C964.863647,634.898376 968.343140,631.314087 971.662170,622.118713 
	C972.187744,620.662720 971.636169,618.543579 970.985657,616.979248 
	C963.028442,597.844849 954.957642,578.757751 946.932434,559.651550 
	C946.753174,559.224670 946.764221,558.717896 946.664246,558.114075 
	C952.248352,558.114075 957.731384,558.114075 963.785461,558.114075 
	C969.346191,573.866577 974.960693,589.771606 980.689453,606.000183 
	C985.869141,590.050415 991.024170,574.176453 996.214417,558.194092 
	C1001.920349,558.194092 1007.381104,558.194092 1013.379089,558.194092 
	C1012.841919,559.826172 1012.436157,561.323792 1011.864807,562.755371 
	C1002.952942,585.082886 994.175049,607.466248 984.957031,629.666809 
	C983.171143,633.967957 979.647644,637.547607 976.652710,641.697632 
z"/>
<path fill="#FEFEFE" opacity="1.000000" stroke="none" 
	d="
M801.025513,618.059814 
	C798.517639,612.956848 794.696350,608.157043 794.411072,603.155518 
	C793.563477,588.293030 794.107361,573.351257 794.107361,558.219910 
	C799.572388,558.219910 804.798035,558.219910 810.392334,558.219910 
	C810.392334,569.878906 810.263855,581.341553 810.468018,592.798218 
	C810.532166,596.394409 810.952576,600.166992 812.151611,603.522278 
	C814.673645,610.579956 822.717163,611.858704 827.736511,606.285400 
	C831.784180,601.791016 832.564697,596.231506 832.592773,590.503235 
	C832.644897,579.868835 832.607666,569.234009 832.607666,558.299622 
	C838.087708,558.299622 843.297180,558.299622 848.942749,558.299622 
	C848.942749,579.010620 848.942749,599.724915 848.942749,620.721436 
	C844.231018,620.721436 839.312012,620.721436 833.987793,620.721436 
	C833.614563,617.110596 833.230530,613.395325 832.778931,609.025940 
	C829.146851,614.718201 825.483826,619.725281 818.895569,621.297424 
	C812.584167,622.803406 806.717834,621.986450 801.025513,618.059814 
z"/>
<path fill="#FBFBFB" opacity="1.000000" stroke="none" 
	d="
M720.645996,564.699585 
	C736.085388,550.444885 765.778381,556.154602 769.910645,574.400208 
	C765.332275,574.929138 760.805908,575.452026 756.367249,575.964783 
	C751.662781,568.149658 744.556519,565.648438 736.004089,569.080566 
	C734.333862,569.750854 732.264282,571.899048 732.195801,573.445984 
	C732.114868,575.275208 733.576538,578.242981 735.121338,578.872498 
	C739.674377,580.727905 744.618835,581.603699 749.371948,582.993408 
	C753.489319,584.197449 757.644165,585.354431 761.622437,586.934998 
	C767.937744,589.444153 771.277832,594.423462 771.675842,601.112671 
	C772.080261,607.909363 769.706482,613.768799 763.537842,617.063171 
	C750.156555,624.209534 736.270020,624.137817 722.942322,617.407654 
	C718.964539,615.398987 716.533020,610.328308 712.466492,605.578247 
	C718.365906,604.588379 722.369324,603.848877 726.398682,603.299011 
	C727.182617,603.192017 728.564453,603.586731 728.831360,604.148621 
	C733.248352,613.447449 741.566101,610.928162 748.929321,610.630920 
	C752.661438,610.480286 756.378540,608.922119 756.496033,604.244690 
	C756.605408,599.891907 753.237854,598.421387 749.714905,597.486145 
	C742.664612,595.614441 735.427307,594.303894 728.559448,591.919739 
	C716.355591,587.683289 712.880798,575.551208 720.645996,564.699585 
z"/>
<path fill="#FEFEFE" opacity="1.000000" stroke="none" 
	d="
M469.565857,610.000977 
	C469.675140,617.139832 469.675140,623.778625 469.675140,630.865112 
	C476.609467,630.865112 483.181427,630.865112 489.932373,630.865112 
	C489.932373,634.726196 489.932373,638.135620 489.932373,641.774536 
	C470.059235,641.774536 450.327393,641.774536 430.296082,641.774536 
	C430.296082,638.408752 430.296082,634.995483 430.296082,631.144775 
	C437.497040,631.144775 444.887238,631.144775 452.635254,631.144775 
	C452.635254,617.360229 452.635254,604.002014 452.635254,590.177368 
	C447.268066,590.177368 441.861755,590.177368 436.235382,590.177368 
	C436.235382,586.316406 436.235382,582.911194 436.235382,579.249268 
	C447.183960,579.249268 458.092529,579.249268 469.456543,579.249268 
	C469.456543,589.346863 469.456543,599.423950 469.565857,610.000977 
z"/>
<path fill="#69E9F5" opacity="1.000000" stroke="none" 
	d="
M559.000000,580.000000 
	C559.000000,564.867676 559.000000,550.235352 559.000000,535.302124 
	C562.963135,535.302124 566.695312,535.302124 570.717163,535.302124 
	C570.717163,578.978333 570.717163,622.686584 570.717163,666.697693 
	C567.037109,666.697693 563.304993,666.697693 559.000000,666.697693 
	C559.000000,637.988281 559.000000,609.244141 559.000000,580.000000 
z"/>
<path fill="#69E9F5" opacity="1.000000" stroke="none" 
	d="
M631.000000,610.000000 
	C631.000000,584.874023 631.000000,560.248108 631.000000,535.311401 
	C634.945251,535.311401 638.677368,535.311401 642.708191,535.311401 
	C642.708191,578.959717 642.708191,622.668030 642.708191,666.688477 
	C639.056946,666.688477 635.324402,666.688477 631.000000,666.688477 
	C631.000000,648.002258 631.000000,629.251099 631.000000,610.000000 
z"/>
<path fill="#FEFEFE" opacity="1.000000" stroke="none" 
	d="
M879.723511,612.888733 
	C879.272156,594.431458 881.277710,576.337646 876.677490,558.272705 
	C882.083557,558.272705 887.154846,558.272705 892.639587,558.272705 
	C893.493713,562.220642 894.359924,566.224609 895.342834,570.767883 
	C898.532043,564.895203 901.707825,558.868958 908.762207,558.115540 
	C915.097290,557.439026 921.561584,557.972961 928.136780,557.972961 
	C928.136780,562.683594 928.136780,567.068298 928.136780,571.579285 
	C924.445862,571.343567 921.011230,570.978760 917.572205,570.931091 
	C906.130859,570.772644 898.410889,576.675598 896.992493,588.156677 
	C895.837280,597.506409 896.268127,607.052429 896.007446,616.511719 
	C895.971436,617.819214 896.002502,619.128540 896.002502,620.718994 
	C890.539490,620.718994 885.297974,620.718994 879.816101,620.718994 
	C879.816101,618.281067 879.816101,615.824036 879.723511,612.888733 
z"/>
<path fill="#69E9F5" opacity="1.000000" stroke="none" 
	d="
M547.000000,617.990112 
	C547.000000,622.459717 547.000000,626.430908 547.000000,630.699951 
	C543.035217,630.699951 539.305237,630.699951 535.284302,630.699951 
	C535.284302,611.023315 535.284302,591.312195 535.284302,571.299805 
	C538.964050,571.299805 542.694397,571.299805 547.000000,571.299805 
	C547.000000,586.671997 547.000000,602.081909 547.000000,617.990112 
z"/>
<path fill="#69E9F5" opacity="1.000000" stroke="none" 
	d="
M619.000000,599.000000 
	C619.000000,609.795166 619.000000,620.090393 619.000000,630.692139 
	C615.052368,630.692139 611.321960,630.692139 607.291931,630.692139 
	C607.291931,611.039734 607.291931,591.328796 607.291931,571.308228 
	C610.947144,571.308228 614.677429,571.308228 619.000000,571.308228 
	C619.000000,580.326599 619.000000,589.413269 619.000000,599.000000 
z"/>
<path fill="#69E9F5" opacity="1.000000" stroke="none" 
	d="
M667.000000,590.000427 
	C667.000000,603.791748 667.000000,617.083130 667.000000,630.686646 
	C663.063171,630.686646 659.332825,630.686646 655.297241,630.686646 
	C655.297241,611.050781 655.297241,591.339783 655.297241,571.313660 
	C658.938477,571.313660 662.668457,571.313660 667.000000,571.313660 
	C667.000000,577.318054 667.000000,583.409302 667.000000,590.000427 
z"/>
<path fill="#69E9F5" opacity="1.000000" stroke="none" 
	d="
M523.000000,596.070374 
	C523.000000,601.852966 523.000000,607.143372 523.000000,612.714844 
	C519.008545,612.714844 515.284058,612.714844 511.276276,612.714844 
	C511.276276,605.003662 511.276276,597.286133 511.276276,589.282959 
	C514.994568,589.282959 518.720154,589.282959 523.000000,589.282959 
	C523.000000,591.379150 523.000000,593.478638 523.000000,596.070374 
z"/>
<path fill="#69E9F5" opacity="1.000000" stroke="none" 
	d="
M593.772705,589.048096 
	C594.606079,596.918640 594.961853,604.750000 595.327515,612.798645 
	C590.959473,612.798645 587.347961,612.798645 583.366821,612.798645 
	C583.366821,605.196838 583.366821,597.473206 583.366821,589.008850 
	C586.490356,589.008850 589.892761,589.008850 593.772705,589.048096 
z"/>
<path fill="#69E9F5" opacity="1.000000" stroke="none" 
	d="
M679.000488,609.817505 
	C679.000061,602.720459 679.000061,596.108337 679.000061,589.250732 
	C683.062500,589.250732 686.787231,589.250732 690.757996,589.250732 
	C690.757996,597.071594 690.757996,604.789246 690.757996,612.996399 
	C687.561157,612.996399 684.435120,613.189514 681.361633,612.872925 
	C680.495605,612.783691 679.783569,611.200378 679.000488,609.817505 
z"/>
<path fill="#FBFBFB" opacity="1.000000" stroke="none" 
	d="
M457.122101,567.006897 
	C454.077759,567.381836 452.620667,566.776917 452.934692,563.685242 
	C453.213226,560.942993 452.993164,558.150146 452.993164,555.193970 
	C458.602081,555.193970 463.823212,555.193970 469.355591,555.193970 
	C469.355591,559.028564 469.355591,562.725403 469.355591,567.006897 
	C465.407471,567.006897 461.506226,567.006897 457.122101,567.006897 
z"/>
<path fill="#000000" opacity="1.000000" stroke="none" 
	d="
M384.752441,613.007202 
	C386.074493,613.293701 387.509918,613.362549 387.713562,613.899048 
	C390.519409,621.291321 382.088989,631.989441 374.116638,631.485535 
	C369.459808,631.191223 367.949951,628.293701 367.461700,624.335022 
	C366.807159,619.028381 368.804688,614.908325 372.989105,614.056946 
	C376.675720,613.306885 380.519043,613.326965 384.752441,613.007202 
z"/>
<path fill="#000000" opacity="1.000000" stroke="none" 
	d="
M1065.925537,600.588623 
	C1063.914673,605.628540 1061.125977,609.294800 1055.754272,610.234924 
	C1050.599243,611.137085 1047.935913,609.618835 1046.820435,604.972229 
	C1045.416748,599.124695 1047.302856,593.993164 1051.833862,593.104492 
	C1056.622681,592.165039 1061.586182,592.115784 1067.076538,591.623657 
	C1066.650146,595.061462 1066.331421,597.630554 1065.925537,600.588623 
z"/>
</svg>